HIERARCHY
ROOT Hips
{
  OFFSET 3.13124 94.3669 -3.18751
  CHANNELS  6 Xposition Yposition Zposition Zrotation Xrotation Yrotation
  JOINT LeftUpLeg
  {
    OFFSET 8.64259 1.95398 -2.38835
    CHANNELS 3 Zrotation Xrotation Yrotation
    JOINT LeftLeg
    {
      OFFSET 43.7702 0 0
      CHANNELS 3 Zrotation Xrotation Yrotation
      JOINT LeftFoot
      {
        OFFSET 40.6238 0 0
        CHANNELS 3 Zrotation Xrotation Yrotation
        JOINT LeftToeBase
        {
          OFFSET 12.7242 0 0
          CHANNELS 3 Zrotation Xrotation Yrotation
          End Site
          {
            OFFSET 0 0 0
          }
        }
      }
    }
  }
  JOINT RightUpLeg
  {
    OFFSET -8.2249 1.95398 -2.59336
    CHANNELS 3 Zrotation Xrotation Yrotation
    JOINT RightLeg
    {
      OFFSET 43.5653 0 0
      CHANNELS 3 Zrotation Xrotation Yrotation
      JOINT RightFoot
      {
        OFFSET 40.6238 0 0
        CHANNELS 3 Zrotation Xrotation Yrotation
        JOINT RightToeBase
        {
          OFFSET 12.7242 0 0
          CHANNELS 3 Zrotation Xrotation Yrotation
          End Site
          {
            OFFSET 0 0 0
          }
        }
      }
    }
  }
  JOINT Spine
  {
    OFFSET 0.165834 0.87714 6.61349
    CHANNELS 3 Zrotation Xrotation Yrotation
    JOINT Spine1
    {
      OFFSET 7.38962 1.71661e-005 0
      CHANNELS 3 Zrotation Xrotation Yrotation
      JOINT Spine2
      {
        OFFSET 11.9445 1.14441e-005 0
        CHANNELS 3 Zrotation Xrotation Yrotation
        JOINT Spine3
        {
          OFFSET 14.7254 4.19617e-005 0
          CHANNELS 3 Zrotation Xrotation Yrotation
          JOINT Spine4
          {
            OFFSET 10.9679 0 0
            CHANNELS 3 Zrotation Xrotation Yrotation
            JOINT RightShoulder
            {
              OFFSET 2.46616 -1.6653 3.69651
              CHANNELS 3 Zrotation Xrotation Yrotation
              JOINT RightArm
              {
                OFFSET 13.0012 0 0
                CHANNELS 3 Zrotation Xrotation Yrotation
                JOINT RightForeArm
                {
                  OFFSET 28.7848 1.52588e-005 0
                  CHANNELS 3 Zrotation Xrotation Yrotation
                  JOINT RightHand
                  {
                    OFFSET 26.5688 1.52588e-005 0
                    CHANNELS 3 Zrotation Xrotation Yrotation
                    End Site
                    {
                      OFFSET 0 0 0
                    }
                  }
                }
              }
            }
            JOINT LeftShoulder
            {
              OFFSET 2.38034 -1.29275 -3.75231
              CHANNELS 3 Zrotation Xrotation Yrotation
              JOINT LeftArm
              {
                OFFSET 16.3182 6.10352e-005 0
                CHANNELS 3 Zrotation Xrotation Yrotation
                JOINT LeftForeArm
                {
                  OFFSET 27.0901 0 0
                  CHANNELS 3 Zrotation Xrotation Yrotation
                  JOINT LeftHand
                  {
                    OFFSET 24.5451 1.52588e-005 0
                    CHANNELS 3 Zrotation Xrotation Yrotation
                    End Site
                    {
                      OFFSET 0 0 0
                    }
                  }
                }
              }
            }
            JOINT Neck
            {
              OFFSET 5.0226 -0.0266342 0
              CHANNELS 3 Zrotation Xrotation Yrotation
              JOINT Head
              {
                OFFSET 6.69363 2.86102e-005 0
                CHANNELS 3 Zrotation Xrotation Yrotation
                End Site
                {
                  OFFSET 0 0 0
                }
              }
            }
          }
        }
      }
    }
  }
}
MOTION
Frames:	6
Frame Time:	0.0333333
77.7409 88.3898 52.7672 -138.726 -83.7906 -142.621 -179.273 28.7707 86.9985 -45.9319 0.364987 11.6156 70.3025 -16.1754 -7.98413 28.7808 6.13914e-006 6.45851e-006 -177.787 16.6095 69.2242 -55.5554 40.598 2.43298 59.1127 34.1732 21.7342 28.7808 1.46791e-005 3.03677e-005 3.7436 9.79842 -87.8516 7.47483 8.26051 0.649394 -4.16967 8.28102 0.282658 -26.8937 7.6812 3.11645 -6.88104 7.6812 3.11645 81.6549 -44.8897 -115.451 -0.808339 50.468 -23.3366 -6.22112 1.16881 -15.0925 -5.37983 -0.320012 -0.0162377 -78.1512 -42.6816 96.5304 -28.695 -25.6388 15.9247 -3.04348 -2.33142 -10.1094 21.9064 1.35983 2.34449 0.232723 2.29443 4.41084 -13.6084 1.05106 5.92873 
78.6266 88.3595 53.666 165.78 -84.7041 161.955 179.891 28.8663 85.6041 -46.2673 1.26016 12.0133 70.6272 -15.1313 -7.40071 28.7808 6.13914e-006 6.45851e-006 -178.555 13.0235 68.8852 -54.3651 37.2411 2.09647 58.9197 35.1385 22.4479 28.7808 1.46791e-005 3.03677e-005 3.99671 9.9231 -88.2941 7.25436 8.51913 -0.0814246 -4.38851 8.50722 -0.459078 -27.1359 8.147 2.50015 -7.12325 8.147 2.50014 73.8116 -47.5335 -126.133 3.55931 51.5931 -25.7956 -7.47663 1.23006 -14.6777 -5.37983 -0.320012 -0.0162377 -78.3001 -44.0452 96.3035 -29.2281 -24.2283 16.1624 -5.58256 -9.52935 -10.3787 22.1094 1.26072 1.85968 0.682713 0.312339 8.60098 -14.8777 -1.04289 0.825515 
79.3521 88.4847 54.6433 127.828 -81.352 124.043 178.895 28.9474 84.172 -46.5028 2.84838 12.8815 70.6519 -14.2264 -6.95203 28.7808 6.13914e-006 6.45851e-006 -179.471 9.35156 69.1624 -52.6762 35.6923 1.97374 58.9353 35.2099 22.4862 28.7808 1.46791e-005 3.03677e-005 4.20594 10.0314 -88.7406 7.06296 8.71431 -0.805188 -4.57906 8.67038 -1.19085 -27.3443 8.55031 1.87097 -7.3317 8.5503 1.87098 68.0043 -47.4404 -134.543 7.24369 48.6012 -27.5344 -6.41607 0.99976 -12.945 -5.37983 -0.320012 -0.0162377 -78.3394 -45.2671 96.2579 -29.3902 -23.1681 14.6562 -5.4433 -6.47453 -8.27721 20.0272 1.87097 5.52027 3.26044 -1.7129 12.3892 -17.5194 -3.25842 -3.97643 
79.9249 88.6813 55.7076 113.614 -76.8356 109.883 178.102 28.8235 83.0636 -46.3199 4.16457 13.4661 70.7147 -13.5824 -6.62502 28.7808 6.13914e-006 6.45851e-006 179.686 5.91488 69.856 -50.911 34.8814 1.92699 58.3392 34.798 22.4803 28.7808 1.46791e-005 3.03677e-005 4.46595 10.0922 -89.1203 6.96238 9.03441 -1.38406 -4.67809 8.96468 -1.7835 -27.465 9.02916 1.41811 -7.4524 9.02918 1.41811 64.2725 -47.9911 -139.407 14.5885 43.9614 -34.6298 -6.16042 0.902184 -10.4788 -5.37983 -0.320012 -0.0162377 -77.4432 -44.6204 97.6983 -30.3671 -22.2082 12.4132 -4.80828 -1.43158 -7.71029 16.8383 2.18011 8.97294 7.92556 -4.23404 13.2262 -21.4023 -5.85541 -6.56618 
80.4985 89.0292 56.8988 107.053 -72.369 103.64 177.459 28.4256 82.317 -46.0403 5.72774 14.2148 70.5392 -13.5401 -6.63867 28.7808 6.13914e-006 6.45851e-006 178.832 2.45946 71.034 -48.4757 34.2193 1.90999 57.4069 33.711 22.1658 28.7808 1.46791e-005 3.03677e-005 4.78479 10.0676 -89.5558 7.03731 9.47617 -2.05529 -4.60111 9.37648 -2.47384 -27.4164 9.65164 0.91489 -7.40377 9.65164 0.914893 61.0737 -48.9226 -143.15 20.1668 39.3985 -41.5805 -5.53691 0.763643 -8.36373 -5.37983 -0.320012 -0.0162377 -76.5976 -43.8698 99.0809 -30.4812 -20.9458 10.4093 -5.14587 1.7561 -8.07845 15.5699 2.14073 9.69766 12.5602 -7.36542 13.4442 -25.2459 -8.92817 -8.37132 
81.1894 89.4786 58.1132 103.485 -68.3752 100.335 176.948 27.6105 81.7333 -45.2608 6.95618 14.6034 70.9312 -12.4241 -6.02193 28.7808 6.13914e-006 6.45851e-006 178.031 -0.798572 72.1155 -45.6314 34.3115 1.97496 55.4266 31.9806 21.8411 28.7808 1.46791e-005 3.03677e-005 5.099 9.96677 -90.0711 7.25842 9.89042 -2.80186 -4.37854 9.75749 -3.23814 -27.2199 10.2705 0.331483 -7.2073 10.2705 0.331493 59.9222 -47.5468 -145.566 22.7388 34.7525 -44.7538 -3.87446 0.596952 -6.31124 -5.37983 -0.320012 -0.0162377 -76.098 -43.1559 99.9181 -29.7011 -19.9683 8.70734 -6.00215 1.00682 -8.36739 14.1717 2.23695 11.5289 16.2702 -10.5092 14.8976 -28.8866 -11.8679 -11.3917 
